<mxfile host="app.diagrams.net" modified="2022-11-24T15:47:14.101Z" agent="5.0 (Windows NT 6.1; WOW64) AppleWebKit/537.36 (KHTML, like Gecko) Chrome/105.0.0.0 Safari/537.36" etag="J-RshwJT_VSvmvJ1YCEf" version="20.3.7" type="github">
  <diagram id="bgcVOL1HSojBVxa3G23R" name="第 1 页">
    <mxGraphModel dx="1304" dy="569" grid="0" gridSize="10" guides="1" tooltips="1" connect="1" arrows="1" fold="1" page="1" pageScale="1" pageWidth="827" pageHeight="1169" math="0" shadow="0">
      <root>
        <mxCell id="0" />
        <mxCell id="1" parent="0" />
        <mxCell id="hS7prCahTY1Gqvx74-qK-22" style="edgeStyle=orthogonalEdgeStyle;rounded=0;orthogonalLoop=1;jettySize=auto;html=1;exitX=0;exitY=0.75;exitDx=0;exitDy=0;entryX=0;entryY=0;entryDx=0;entryDy=0;fontSize=16;" edge="1" parent="1" source="hS7prCahTY1Gqvx74-qK-1" target="hS7prCahTY1Gqvx74-qK-5">
          <mxGeometry relative="1" as="geometry">
            <Array as="points">
              <mxPoint x="235" y="350" />
              <mxPoint x="175" y="350" />
              <mxPoint x="175" y="160" />
              <mxPoint x="649" y="160" />
            </Array>
          </mxGeometry>
        </mxCell>
        <mxCell id="hS7prCahTY1Gqvx74-qK-1" value="data&lt;br style=&quot;font-size: 16px;&quot;&gt;&lt;br style=&quot;font-size: 16px;&quot;&gt;&lt;br style=&quot;font-size: 16px;&quot;&gt;&lt;br style=&quot;font-size: 16px;&quot;&gt;&lt;br style=&quot;font-size: 16px;&quot;&gt;&lt;br style=&quot;font-size: 16px;&quot;&gt;prev&lt;br style=&quot;font-size: 16px;&quot;&gt;&lt;br style=&quot;font-size: 16px;&quot;&gt;next&lt;br style=&quot;font-size: 16px;&quot;&gt;" style="rounded=0;whiteSpace=wrap;html=1;fillColor=#dae8fc;strokeColor=#6c8ebf;fontSize=16;" vertex="1" parent="1">
          <mxGeometry x="235" y="220" width="70" height="190" as="geometry" />
        </mxCell>
        <mxCell id="hS7prCahTY1Gqvx74-qK-3" value="data&lt;br style=&quot;font-size: 16px;&quot;&gt;&lt;br style=&quot;font-size: 16px;&quot;&gt;&lt;br style=&quot;font-size: 16px;&quot;&gt;&lt;br style=&quot;font-size: 16px;&quot;&gt;&lt;br style=&quot;font-size: 16px;&quot;&gt;&lt;br style=&quot;font-size: 16px;&quot;&gt;prev&lt;br style=&quot;font-size: 16px;&quot;&gt;&lt;br style=&quot;font-size: 16px;&quot;&gt;next" style="rounded=0;whiteSpace=wrap;html=1;fillColor=#dae8fc;strokeColor=#6c8ebf;fontSize=16;" vertex="1" parent="1">
          <mxGeometry x="514" y="220" width="70" height="190" as="geometry" />
        </mxCell>
        <mxCell id="hS7prCahTY1Gqvx74-qK-4" value="data&lt;br style=&quot;font-size: 16px;&quot;&gt;&lt;br style=&quot;font-size: 16px;&quot;&gt;&lt;br style=&quot;font-size: 16px;&quot;&gt;&lt;br style=&quot;font-size: 16px;&quot;&gt;&lt;br style=&quot;font-size: 16px;&quot;&gt;&lt;br style=&quot;font-size: 16px;&quot;&gt;prev&lt;br style=&quot;font-size: 16px;&quot;&gt;&lt;br style=&quot;font-size: 16px;&quot;&gt;next" style="rounded=0;whiteSpace=wrap;html=1;fillColor=#dae8fc;strokeColor=#6c8ebf;fontSize=16;" vertex="1" parent="1">
          <mxGeometry x="375" y="220" width="70" height="190" as="geometry" />
        </mxCell>
        <mxCell id="hS7prCahTY1Gqvx74-qK-5" value="data&lt;br style=&quot;font-size: 16px;&quot;&gt;&lt;br style=&quot;font-size: 16px;&quot;&gt;&lt;br style=&quot;font-size: 16px;&quot;&gt;&lt;br style=&quot;font-size: 16px;&quot;&gt;&lt;br style=&quot;font-size: 16px;&quot;&gt;&lt;br style=&quot;font-size: 16px;&quot;&gt;prev&lt;br style=&quot;font-size: 16px;&quot;&gt;&lt;br style=&quot;font-size: 16px;&quot;&gt;next" style="rounded=0;whiteSpace=wrap;html=1;fillColor=#dae8fc;strokeColor=#6c8ebf;fontSize=16;" vertex="1" parent="1">
          <mxGeometry x="649" y="220" width="70" height="190" as="geometry" />
        </mxCell>
        <mxCell id="hS7prCahTY1Gqvx74-qK-6" value="front()" style="text;html=1;align=center;verticalAlign=middle;resizable=0;points=[];autosize=1;strokeColor=none;fillColor=none;fontSize=16;" vertex="1" parent="1">
          <mxGeometry x="220" y="185" width="70" height="30" as="geometry" />
        </mxCell>
        <mxCell id="hS7prCahTY1Gqvx74-qK-7" value="back()" style="text;html=1;align=center;verticalAlign=middle;resizable=0;points=[];autosize=1;strokeColor=none;fillColor=none;fontSize=16;" vertex="1" parent="1">
          <mxGeometry x="649" y="185" width="70" height="30" as="geometry" />
        </mxCell>
        <mxCell id="hS7prCahTY1Gqvx74-qK-9" value="链表结点" style="text;html=1;align=center;verticalAlign=middle;resizable=0;points=[];autosize=1;strokeColor=none;fillColor=none;fontSize=16;" vertex="1" parent="1">
          <mxGeometry x="365" y="190" width="90" height="30" as="geometry" />
        </mxCell>
        <mxCell id="hS7prCahTY1Gqvx74-qK-16" value="" style="endArrow=classic;html=1;rounded=0;fontSize=16;exitX=1.029;exitY=0.879;exitDx=0;exitDy=0;exitPerimeter=0;entryX=0;entryY=0.105;entryDx=0;entryDy=0;entryPerimeter=0;" edge="1" parent="1" source="hS7prCahTY1Gqvx74-qK-1" target="hS7prCahTY1Gqvx74-qK-4">
          <mxGeometry width="50" height="50" relative="1" as="geometry">
            <mxPoint x="395" y="370" as="sourcePoint" />
            <mxPoint x="445" y="320" as="targetPoint" />
          </mxGeometry>
        </mxCell>
        <mxCell id="hS7prCahTY1Gqvx74-qK-17" value="" style="endArrow=classic;html=1;rounded=0;fontSize=16;entryX=0;entryY=0.105;entryDx=0;entryDy=0;entryPerimeter=0;exitX=1.029;exitY=0.874;exitDx=0;exitDy=0;exitPerimeter=0;" edge="1" parent="1" source="hS7prCahTY1Gqvx74-qK-3">
          <mxGeometry width="50" height="50" relative="1" as="geometry">
            <mxPoint x="565" y="392" as="sourcePoint" />
            <mxPoint x="649.02" y="241.95000000000005" as="targetPoint" />
          </mxGeometry>
        </mxCell>
        <mxCell id="hS7prCahTY1Gqvx74-qK-18" value="" style="endArrow=classic;html=1;rounded=0;fontSize=16;entryX=0;entryY=0.105;entryDx=0;entryDy=0;entryPerimeter=0;exitX=1.029;exitY=0.884;exitDx=0;exitDy=0;exitPerimeter=0;" edge="1" parent="1" source="hS7prCahTY1Gqvx74-qK-4">
          <mxGeometry width="50" height="50" relative="1" as="geometry">
            <mxPoint x="424" y="400" as="sourcePoint" />
            <mxPoint x="514" y="239.95000000000005" as="targetPoint" />
          </mxGeometry>
        </mxCell>
        <mxCell id="hS7prCahTY1Gqvx74-qK-19" value="" style="endArrow=classic;html=1;rounded=0;fontSize=16;entryX=1;entryY=0.053;entryDx=0;entryDy=0;entryPerimeter=0;exitX=0;exitY=0.689;exitDx=0;exitDy=0;exitPerimeter=0;" edge="1" parent="1" source="hS7prCahTY1Gqvx74-qK-4" target="hS7prCahTY1Gqvx74-qK-1">
          <mxGeometry width="50" height="50" relative="1" as="geometry">
            <mxPoint x="395" y="350" as="sourcePoint" />
            <mxPoint x="445" y="320" as="targetPoint" />
          </mxGeometry>
        </mxCell>
        <mxCell id="hS7prCahTY1Gqvx74-qK-20" value="" style="endArrow=classic;html=1;rounded=0;fontSize=16;entryX=1;entryY=0.053;entryDx=0;entryDy=0;entryPerimeter=0;exitX=0;exitY=0.75;exitDx=0;exitDy=0;" edge="1" parent="1" source="hS7prCahTY1Gqvx74-qK-5">
          <mxGeometry width="50" height="50" relative="1" as="geometry">
            <mxPoint x="674" y="349.93" as="sourcePoint" />
            <mxPoint x="584" y="230.00000000000006" as="targetPoint" />
          </mxGeometry>
        </mxCell>
        <mxCell id="hS7prCahTY1Gqvx74-qK-21" value="" style="endArrow=classic;html=1;rounded=0;fontSize=16;entryX=1;entryY=0.053;entryDx=0;entryDy=0;entryPerimeter=0;exitX=0.014;exitY=0.689;exitDx=0;exitDy=0;exitPerimeter=0;" edge="1" parent="1" source="hS7prCahTY1Gqvx74-qK-3">
          <mxGeometry width="50" height="50" relative="1" as="geometry">
            <mxPoint x="535" y="349.93" as="sourcePoint" />
            <mxPoint x="445" y="230.00000000000006" as="targetPoint" />
          </mxGeometry>
        </mxCell>
        <mxCell id="hS7prCahTY1Gqvx74-qK-25" style="edgeStyle=orthogonalEdgeStyle;rounded=0;orthogonalLoop=1;jettySize=auto;html=1;fontSize=16;exitX=1.014;exitY=0.932;exitDx=0;exitDy=0;exitPerimeter=0;entryX=0.75;entryY=0;entryDx=0;entryDy=0;" edge="1" parent="1" source="hS7prCahTY1Gqvx74-qK-5" target="hS7prCahTY1Gqvx74-qK-1">
          <mxGeometry relative="1" as="geometry">
            <mxPoint x="735" y="380" as="sourcePoint" />
            <mxPoint x="535" y="80" as="targetPoint" />
            <Array as="points">
              <mxPoint x="775" y="397" />
              <mxPoint x="775" y="130" />
              <mxPoint x="288" y="130" />
            </Array>
          </mxGeometry>
        </mxCell>
        <mxCell id="hS7prCahTY1Gqvx74-qK-26" value="" style="endArrow=classic;html=1;rounded=0;fontSize=16;strokeWidth=5;" edge="1" parent="1">
          <mxGeometry width="50" height="50" relative="1" as="geometry">
            <mxPoint x="269.82000000000005" y="470" as="sourcePoint" />
            <mxPoint x="269.82000000000005" y="410" as="targetPoint" />
            <Array as="points">
              <mxPoint x="269.41" y="430" />
            </Array>
          </mxGeometry>
        </mxCell>
        <mxCell id="hS7prCahTY1Gqvx74-qK-28" value="begin()" style="text;html=1;align=center;verticalAlign=middle;resizable=0;points=[];autosize=1;strokeColor=none;fillColor=none;fontSize=16;" vertex="1" parent="1">
          <mxGeometry x="235" y="480" width="70" height="30" as="geometry" />
        </mxCell>
        <mxCell id="hS7prCahTY1Gqvx74-qK-29" value="" style="endArrow=classic;html=1;rounded=0;fontSize=16;strokeWidth=5;" edge="1" parent="1">
          <mxGeometry width="50" height="50" relative="1" as="geometry">
            <mxPoint x="689.8200000000002" y="470" as="sourcePoint" />
            <mxPoint x="689.8200000000002" y="410" as="targetPoint" />
            <Array as="points">
              <mxPoint x="689.4100000000001" y="430" />
            </Array>
          </mxGeometry>
        </mxCell>
        <mxCell id="hS7prCahTY1Gqvx74-qK-30" value="end()" style="text;html=1;align=center;verticalAlign=middle;resizable=0;points=[];autosize=1;strokeColor=none;fillColor=none;fontSize=16;" vertex="1" parent="1">
          <mxGeometry x="660" y="480" width="60" height="30" as="geometry" />
        </mxCell>
        <mxCell id="hS7prCahTY1Gqvx74-qK-31" value="" style="endArrow=classic;html=1;rounded=0;fontSize=16;strokeWidth=5;" edge="1" parent="1">
          <mxGeometry width="50" height="50" relative="1" as="geometry">
            <mxPoint x="419.82000000000016" y="470" as="sourcePoint" />
            <mxPoint x="419.82000000000016" y="410" as="targetPoint" />
            <Array as="points">
              <mxPoint x="419.41" y="430" />
            </Array>
          </mxGeometry>
        </mxCell>
        <mxCell id="hS7prCahTY1Gqvx74-qK-32" value="insert()" style="text;html=1;align=center;verticalAlign=middle;resizable=0;points=[];autosize=1;strokeColor=none;fillColor=none;fontSize=16;" vertex="1" parent="1">
          <mxGeometry x="385" y="480" width="70" height="30" as="geometry" />
        </mxCell>
        <mxCell id="hS7prCahTY1Gqvx74-qK-33" value="" style="endArrow=classic;html=1;rounded=0;fontSize=16;strokeWidth=5;fontColor=#007FFF;strokeColor=#007FFF;" edge="1" parent="1">
          <mxGeometry width="50" height="50" relative="1" as="geometry">
            <mxPoint x="55" y="260" as="sourcePoint" />
            <mxPoint x="160.18" y="260" as="targetPoint" />
            <Array as="points" />
          </mxGeometry>
        </mxCell>
        <mxCell id="hS7prCahTY1Gqvx74-qK-35" value="push_front()" style="text;html=1;align=center;verticalAlign=middle;resizable=0;points=[];autosize=1;strokeColor=none;fillColor=none;fontSize=16;" vertex="1" parent="1">
          <mxGeometry x="40" y="225" width="110" height="30" as="geometry" />
        </mxCell>
        <mxCell id="hS7prCahTY1Gqvx74-qK-36" value="" style="endArrow=classic;html=1;rounded=0;fontSize=16;strokeWidth=5;fontColor=#007FFF;strokeColor=#007FFF;" edge="1" parent="1">
          <mxGeometry width="50" height="50" relative="1" as="geometry">
            <mxPoint x="159" y="320" as="sourcePoint" />
            <mxPoint x="55" y="320" as="targetPoint" />
            <Array as="points" />
          </mxGeometry>
        </mxCell>
        <mxCell id="hS7prCahTY1Gqvx74-qK-37" value="pop_front()" style="text;html=1;align=center;verticalAlign=middle;resizable=0;points=[];autosize=1;strokeColor=none;fillColor=none;fontSize=16;" vertex="1" parent="1">
          <mxGeometry x="65" y="330" width="100" height="30" as="geometry" />
        </mxCell>
        <mxCell id="hS7prCahTY1Gqvx74-qK-38" value="" style="endArrow=classic;html=1;rounded=0;fontSize=16;strokeWidth=5;fontColor=#007FFF;strokeColor=#007FFF;" edge="1" parent="1">
          <mxGeometry width="50" height="50" relative="1" as="geometry">
            <mxPoint x="800" y="330" as="sourcePoint" />
            <mxPoint x="905.1800000000001" y="330" as="targetPoint" />
            <Array as="points" />
          </mxGeometry>
        </mxCell>
        <mxCell id="hS7prCahTY1Gqvx74-qK-39" value="push_back()" style="text;html=1;align=center;verticalAlign=middle;resizable=0;points=[];autosize=1;strokeColor=none;fillColor=none;fontSize=16;" vertex="1" parent="1">
          <mxGeometry x="804.82" y="215" width="110" height="30" as="geometry" />
        </mxCell>
        <mxCell id="hS7prCahTY1Gqvx74-qK-40" value="" style="endArrow=classic;html=1;rounded=0;fontSize=16;strokeWidth=5;fontColor=#007FFF;strokeColor=#007FFF;" edge="1" parent="1">
          <mxGeometry width="50" height="50" relative="1" as="geometry">
            <mxPoint x="901.32" y="255" as="sourcePoint" />
            <mxPoint x="797.32" y="255" as="targetPoint" />
            <Array as="points" />
          </mxGeometry>
        </mxCell>
        <mxCell id="hS7prCahTY1Gqvx74-qK-41" value="pop_back()" style="text;html=1;align=center;verticalAlign=middle;resizable=0;points=[];autosize=1;strokeColor=none;fillColor=none;fontSize=16;" vertex="1" parent="1">
          <mxGeometry x="795" y="335" width="100" height="30" as="geometry" />
        </mxCell>
        <mxCell id="hS7prCahTY1Gqvx74-qK-42" value="链表 list 原理图" style="text;html=1;align=center;verticalAlign=middle;resizable=0;points=[];autosize=1;strokeColor=none;fillColor=none;fontSize=20;fontColor=#000000;fontStyle=1" vertex="1" parent="1">
          <mxGeometry x="370" y="70" width="160" height="40" as="geometry" />
        </mxCell>
      </root>
    </mxGraphModel>
  </diagram>
</mxfile>
